<svg xmlns="http://www.w3.org/2000/svg" viewBox="0 0 64 64">
  <rect width="64" height="64" rx="14" fill="#67e8f9"/>
  <path fill="#0f1411" d="M16.2 19.1c1.9-2.1 5-3.2 9.2-3.2 4 0 7.1 1 9.1 3 1.4 1.4 2.1 3.1 2.1 5.2 0 3.1-1.6 5.3-4.8 6.4 3.8 1 5.7 3.4 5.7 7.2 0 2.7-1 4.9-3.1 6.6-2.1 1.8-5.1 2.6-9 2.6-4.4 0-7.8-1.1-10.1-3.4l3.4-4.7c1.8 1.6 3.8 2.4 6.2 2.4 3.5 0 5.3-1.3 5.3-3.9 0-2.4-1.8-3.6-5.4-3.6h-3.3v-5.4h3.3c3.1 0 4.7-1.2 4.7-3.5 0-2.1-1.5-3.1-4.5-3.1-2.1 0-3.9.7-5.3 2.1l-3.5-4.7Z"/>
  <path fill="#0f1411" d="M41.1 16.7h6.7c4.8 0 8.6 1.3 11.3 4 2.7 2.6 4 6.2 4 10.8 0 4.7-1.4 8.4-4.1 11.1-2.8 2.7-6.6 4-11.5 4h-6.4V16.7Zm6.7 24.2c2.6 0 4.6-.8 6-2.5 1.4-1.6 2.1-3.9 2.1-6.8 0-2.9-.7-5.1-2.1-6.7-1.4-1.6-3.4-2.4-6-2.4h-.2v18.4h.2Z"/>
</svg>
